<svg width="307" height="334" viewBox="0 0 307 334" fill="none" xmlns="http://www.w3.org/2000/svg">
<path d="M0.612844 329.71V12.9568C0.612844 11.494 1.19395 10.0911 2.22832 9.05672L9.05672 2.22832C10.0911 1.19395 11.494 0.612844 12.9568 0.612844H190.584C191.596 0.612844 192.563 1.02965 193.257 1.76515L201.136 10.1076C202.062 11.0883 203.352 11.644 204.701 11.644H296.002C298.033 11.644 299.68 13.2903 299.68 15.3211L299.679 89.0588C299.679 90.2915 299.062 91.4422 298.034 92.1234L287.071 99.3927C285.701 100.301 284.878 101.835 284.878 103.479V163.59C284.878 164.956 285.448 166.26 286.45 167.188L298.5 178.342C299.252 179.038 299.679 180.016 299.679 181.041V329.71C299.679 331.741 298.033 333.387 296.002 333.387H4.28992C2.25913 333.387 0.612844 331.741 0.612844 329.71Z" fill="#1E252B" stroke="url(#paint0_linear_471_10854)" stroke-width="1.22569" stroke-miterlimit="10"/>
<path d="M231.27 333.999L226.017 328.086C225.203 327.169 224.036 326.645 222.81 326.645H172.325C171.1 326.645 169.934 327.168 169.12 328.083L163.857 333.999H231.27Z" fill="#901C1E"/>
<path d="M299.068 311.937L304.981 306.685C305.897 305.871 306.422 304.704 306.422 303.478L306.422 252.993C306.422 251.768 305.898 250.602 304.983 249.788L299.068 244.525L299.068 311.937Z" fill="#901C1E"/>
<path d="M300.294 165.787C300.294 166.847 299.039 167.407 298.25 166.699L294.366 163.218C293.458 162.405 292.939 161.243 292.939 160.024L292.939 109.022C292.939 107.804 293.457 106.643 294.364 105.829L298.249 102.341C299.038 101.633 300.294 102.193 300.294 103.253L300.294 165.787Z" fill="#901C1E"/>
<defs>
<linearGradient id="paint0_linear_471_10854" x1="149.075" y1="-0.000190284" x2="329.704" y2="174.243" gradientUnits="userSpaceOnUse">
<stop stop-color="#C23131"/>
<stop offset="0.481552" stop-color="#FFE9E9" stop-opacity="0.08"/>
<stop offset="0.775206" stop-color="#B11515"/>
<stop offset="1" stop-color="#B61414"/>
</linearGradient>
</defs>
</svg>
