<svg width="500" height="545" viewBox="0 0 500 545" fill="none" xmlns="http://www.w3.org/2000/svg">
<path d="M1 538V21.1422C1 18.7552 1.94821 16.466 3.63604 14.7782L14.7782 3.63604C16.466 1.94821 18.7552 1 21.1421 1H310.983C312.633 1 314.211 1.68012 315.345 2.88026L328.201 16.493C329.713 18.0932 331.816 19 334.017 19H482.998C486.312 19 488.998 21.6863 488.998 25L488.998 145.321C488.998 147.332 487.99 149.21 486.314 150.321L468.424 162.183C466.189 163.665 464.845 166.168 464.845 168.85V266.936C464.845 269.165 465.775 271.293 467.411 272.807L487.074 291.008C488.301 292.143 488.998 293.739 488.998 295.411V538C488.998 541.314 486.312 544 482.998 544H6.99998C3.68628 544 1 541.314 1 538Z" fill="#1E252B" stroke="url(#paint0_linear_471_10833)" stroke-width="2" stroke-miterlimit="10"/>
<path d="M377.371 545L368.801 535.351C367.472 533.856 365.567 533 363.567 533H281.189C279.19 533 277.287 533.854 275.959 535.347L267.371 545H377.371Z" fill="#901C1E"/>
<path d="M488 509L497.649 500.43C499.144 499.101 500 497.196 500 495.196L500 412.818C500 410.819 499.146 408.916 497.653 407.588L488 399L488 509Z" fill="#901C1E"/>
<path d="M490 270.522C490 272.251 487.953 273.165 486.665 272.011L480.328 266.331C478.846 265.003 478 263.107 478 261.118L478 177.896C478 175.908 478.845 174.015 480.324 172.687L486.664 166.995C487.952 165.839 490 166.753 490 168.483L490 270.522Z" fill="#901C1E"/>
<defs>
<linearGradient id="paint0_linear_471_10833" x1="243.251" y1="-0.000310493" x2="537.99" y2="284.319" gradientUnits="userSpaceOnUse">
<stop stop-color="#C23131"/>
<stop offset="0.481552" stop-color="#FFE9E9" stop-opacity="0.08"/>
<stop offset="0.775206" stop-color="#B11515"/>
<stop offset="1" stop-color="#B61414"/>
</linearGradient>
</defs>
</svg>
