<svg width="229" height="36" viewBox="0 0 229 36" fill="none" xmlns="http://www.w3.org/2000/svg">
<path d="M14.2976 1.06401C15.4101 0.368685 16.6956 0 18.0076 0H75.6418H193.721C195.799 0 197.769 0.922761 199.099 2.51871L208.266 13.5187C210.429 16.1146 210.429 19.8854 208.266 22.4813L199.099 33.4813C197.769 35.0772 195.799 36 193.721 36H7C3.13401 36 0 32.866 0 29V13.8797C0 11.4662 1.24334 9.22291 3.29001 7.94375L14.2976 1.06401Z" fill="#10A242"/>
<path d="M205.959 3.32873C204.812 2.03893 205.728 0 207.454 0H210.721C212.799 0 214.769 0.922761 216.099 2.51871L225.266 13.5187C227.429 16.1146 227.429 19.8854 225.266 22.4813L216.099 33.4813C214.769 35.0772 212.799 36 210.721 36H207.454C205.728 36 204.812 33.9611 205.959 32.6713L217.228 19.9931C218.239 18.8564 218.239 17.1436 217.228 16.0069L205.959 3.32873Z" fill="#10A242"/>
</svg>
